<svg width="145" height="110" viewBox="0 0 145 110" fill="none" xmlns="http://www.w3.org/2000/svg">
<path d="M35.651 109.086C69.6416 109.086 88.6131 87.5852 88.6131 54.5431C88.6131 21.6592 69.6416 1.4128e-05 35.651 1.4128e-05C1.50227 1.4128e-05 -17.3112 21.6592 -17.3112 54.5431C-17.3112 87.5852 1.50227 109.086 35.651 109.086ZM35.651 86.0042C15.4147 86.0042 8.14229 77.3089 8.14229 54.5431C8.14229 31.7773 15.4147 23.082 35.651 23.082C55.7292 23.082 63.1597 31.7773 63.1597 54.5431C63.1597 77.3089 55.7292 86.0042 35.651 86.0042ZM144.856 107.505V1.58097H123.197C117.979 12.0153 110.075 14.7029 98.3756 14.7029H93.9489V30.9868H121.141V107.505H144.856Z" fill="#F1F1F1"/>
</svg>
