<svg width="191" height="110" viewBox="0 0 191 110" fill="none" xmlns="http://www.w3.org/2000/svg">
<path d="M35.651 109.086C69.6416 109.086 88.6131 87.5852 88.6131 54.5431C88.6131 21.6592 69.6416 1.4128e-05 35.651 1.4128e-05C1.50227 1.4128e-05 -17.3112 21.6592 -17.3112 54.5431C-17.3112 87.5852 1.50227 109.086 35.651 109.086ZM35.651 86.0042C15.4147 86.0042 8.14229 77.3089 8.14229 54.5431C8.14229 31.7773 15.4147 23.082 35.651 23.082C55.7292 23.082 63.1597 31.7773 63.1597 54.5431C63.1597 77.3089 55.7292 86.0042 35.651 86.0042ZM190.071 107.505V86.1623H148.65L120.983 88.8499C120.983 80.4708 125.884 77.467 136.16 74.3051L159.242 67.9813C178.056 62.7641 190.387 53.4364 190.387 34.623C190.387 14.5448 177.424 1.4128e-05 145.488 1.4128e-05C110.233 1.4128e-05 96.1622 18.6553 96.1622 39.2078V41.263H119.402V39.2078C119.402 27.5087 125.252 21.6592 144.698 21.6592C162.088 21.6592 166.515 26.2439 166.515 34.3068C166.515 41.263 163.037 44.425 153.551 47.745L126.359 56.5984C104.067 64.0289 96.0041 73.6727 96.0041 92.328V107.505H190.071Z" fill="#D9D9D9"/>
</svg>
