<svg width="78" height="28" viewBox="0 0 78 28" fill="none" xmlns="http://www.w3.org/2000/svg">
<g filter="url(#filter0_d_94_6005)">
<path d="M4.81378 5.35668L5.84348 6.44852C6.87318 7.54035 8.93257 9.72403 10.992 11.5167C13.0514 13.3094 15.1108 14.7111 17.1702 13.7731C19.2296 12.8351 21.2889 9.55757 23.3483 7.25895C25.4077 4.96033 27.4671 3.64068 29.5265 3.30903C31.5859 2.97738 33.6453 3.63372 35.7047 6.68106C37.7641 9.7284 39.8235 15.1667 41.8829 17.9597C43.9423 20.7527 46.0017 20.9002 48.0611 20.0451C50.1205 19.19 52.1799 17.3321 54.2393 15.2137C56.2987 13.0952 58.3581 10.7162 60.4175 9.78696C62.4769 8.85777 64.5363 9.37846 66.5957 8.95371C68.6551 8.52895 70.7145 7.15875 71.7442 6.47365L72.7738 5.78855" stroke="url(#paint0_linear_94_6005)" stroke-width="0.625399"/>
</g>
<defs>
<filter id="filter0_d_94_6005" x="4.14848e-05" y="-1.2517e-05" width="77.5333" height="27.0719" filterUnits="userSpaceOnUse" color-interpolation-filters="sRGB">
<feFlood flood-opacity="0" result="BackgroundImageFix"/>
<feColorMatrix in="SourceAlpha" type="matrix" values="0 0 0 0 0 0 0 0 0 0 0 0 0 0 0 0 0 0 127 0" result="hardAlpha"/>
<feOffset dy="1.66773"/>
<feGaussianBlur stdDeviation="2.29313"/>
<feComposite in2="hardAlpha" operator="out"/>
<feColorMatrix type="matrix" values="0 0 0 0 0 0 0 0 0 0 0 0 0 0 0 0 0 0 0.25 0"/>
<feBlend mode="normal" in2="BackgroundImageFix" result="effect1_dropShadow_94_6005"/>
<feBlend mode="normal" in="SourceGraphic" in2="effect1_dropShadow_94_6005" result="shape"/>
</filter>
<linearGradient id="paint0_linear_94_6005" x1="4.81378" y1="8.83658" x2="78.4024" y2="11.9636" gradientUnits="userSpaceOnUse">
<stop stop-color="#FFBFBF"/>
<stop offset="0.320833" stop-color="#C5F07F"/>
<stop offset="0.742708" stop-color="#CC7FF0"/>
</linearGradient>
</defs>
</svg>
